<svg xmlns="http://www.w3.org/2000/svg" width="291.533" height="189.418" viewBox="0 0 291.533 189.418">
  <g id="Group_8197" data-name="Group 8197" transform="translate(-41.516 -239.582)">
    <g id="Group_8195" data-name="Group 8195" transform="translate(-232.792 200.242)">
      <path id="Path_6937" data-name="Path 6937" d="M862.616,73.342V84.685H847.849v123.7h30.818V73.342Z" transform="translate(-347.134 -15.056)" fill="#575a89"/>
      <path id="Path_6938" data-name="Path 6938" d="M557,287.114V267.639H538.171v19.475h-7.062v59.069h32.744V287.114Z" transform="translate(-122.849 -152.639)" fill="#575a89"/>
      <rect id="Rectangle_18009" data-name="Rectangle 18009" width="25.468" height="27.608" transform="translate(411.898 166.15)" fill="#3f3d56"/>
      <rect id="Rectangle_18010" data-name="Rectangle 18010" width="4.066" height="27.608" transform="translate(411.898 166.15)" opacity="0.1"/>
      <path id="Path_6939" data-name="Path 6939" d="M692.083,52.079v6.635H654.416V52.079H643.287V193.758H703V52.079Z" transform="translate(-202.283 0)" fill="#3f3d56"/>
      <rect id="Rectangle_18011" data-name="Rectangle 18011" width="8.347" height="6.635" transform="translate(489.8 52.079)" opacity="0.1"/>
      <rect id="Rectangle_18012" data-name="Rectangle 18012" width="8.347" height="141.679" transform="translate(441.004 52.079)" opacity="0.1"/>
      <path id="Path_6940" data-name="Path 6940" d="M459.481,177.673v-5.35h-5.564v5.35H443.858V278.9h25.468V177.673Z" transform="translate(-61.066 -85.145)" fill="#3f3d56"/>
      <rect id="Rectangle_18013" data-name="Rectangle 18013" width="2.996" height="5.35" transform="translate(392.851 87.178)" opacity="0.1"/>
      <rect id="Rectangle_18014" data-name="Rectangle 18014" width="2.996" height="101.23" transform="translate(382.792 92.528)" opacity="0.1"/>
      <rect id="Rectangle_18015" data-name="Rectangle 18015" width="8.347" height="87.105" transform="translate(489.8 106.653)" opacity="0.1"/>
      <rect id="Rectangle_18016" data-name="Rectangle 18016" width="7.705" height="18.619" transform="translate(400.555 92.528)" opacity="0.1"/>
      <rect id="Rectangle_18017" data-name="Rectangle 18017" width="11.985" height="5.136" transform="translate(450.207 70.057)" fill="#ff6584"/>
      <rect id="Rectangle_18018" data-name="Rectangle 18018" width="11.985" height="5.136" transform="translate(475.675 122.919)" fill="#ff6584"/>
      <rect id="Rectangle_18019" data-name="Rectangle 18019" width="11.985" height="5.136" transform="translate(450.207 159.943)" fill="#ff6584"/>
      <rect id="Rectangle_18020" data-name="Rectangle 18020" width="11.985" height="5.136" transform="translate(389.641 115.642)" fill="#ff6584"/>
      <rect id="Rectangle_18021" data-name="Rectangle 18021" width="11.985" height="5.136" transform="translate(418.747 169.146)" fill="#ff6584"/>
      <rect id="Rectangle_18022" data-name="Rectangle 18022" width="20.546" height="8.561" transform="translate(414.466 138.97)" opacity="0.1"/>
      <rect id="Rectangle_18023" data-name="Rectangle 18023" width="20.546" height="8.561" transform="translate(504.353 79.473)" opacity="0.1"/>
      <rect id="Rectangle_18024" data-name="Rectangle 18024" width="20.546" height="8.561" transform="translate(504.353 97.665)" opacity="0.1"/>
      <rect id="Rectangle_18025" data-name="Rectangle 18025" width="20.546" height="8.561" transform="translate(504.353 115.856)" opacity="0.1"/>
      <rect id="Rectangle_18026" data-name="Rectangle 18026" width="20.546" height="8.561" transform="translate(504.353 134.047)" opacity="0.1"/>
      <rect id="Rectangle_18027" data-name="Rectangle 18027" width="20.546" height="8.561" transform="translate(504.353 152.239)" opacity="0.1"/>
      <rect id="Rectangle_18028" data-name="Rectangle 18028" width="20.546" height="8.561" transform="translate(504.353 170.43)" opacity="0.1"/>
      <path id="Path_6941" data-name="Path 6941" d="M928.3,222.046V198.718H913.32v23.328h-5.35v75.548h25.468V222.046Z" transform="translate(-389.706 -103.836)" fill="#3f3d56"/>
      <rect id="Rectangle_18029" data-name="Rectangle 18029" width="4.708" height="23.328" transform="translate(523.615 94.882)" opacity="0.1"/>
      <rect id="Rectangle_18030" data-name="Rectangle 18030" width="4.708" height="75.548" transform="translate(518.264 118.21)" opacity="0.1"/>
      <rect id="Rectangle_18031" data-name="Rectangle 18031" width="12.627" height="7.491" transform="translate(531.105 156.091)" opacity="0.1"/>
      <rect id="Rectangle_18032" data-name="Rectangle 18032" width="11.985" height="5.136" transform="translate(531.534 144.962)" fill="#ff6584"/>
      <path id="Path_6943" data-name="Path 6943" d="M1008.423,305.761l.257-15.957,10.791-19.742L1008.72,287.3l.117-7.175,7.438-14.283-7.405,12.384h0l.21-12.9,7.963-11.371-7.931,9.342.131-23.663-.823,31.325.067-1.292-8.1-12.394,7.969,14.874-.756,14.412-.023-.383-9.333-13.042,9.307,14.394-.1,1.8-.018.027.009.148-1.912,36.565h2.557l.306-18.887,9.282-14.358Z" transform="translate(-453.631 -132.806)" fill="#3f3d56"/>
    </g>
    <g id="Group_8190" data-name="Group 8190" transform="translate(20.994 292.377)">
      <circle id="Ellipse_378" data-name="Ellipse 378" cx="19.709" cy="19.709" r="19.709" transform="translate(67.055 20.374)" fill="#6c63ff"/>
      <path id="Path_6867" data-name="Path 6867" d="M395.5,336.455H298.811a1.971,1.971,0,0,1-.361-.029l45.728-79.208a3.2,3.2,0,0,1,5.573,0l30.689,53.154,1.47,2.543Z" transform="translate(-277.927 -235.221)" fill="#3f3d56"/>
      <path id="Path_6868" data-name="Path 6868" d="M339.569,218.583H306.558l16.2-23.538,1.166-1.7.583-.848,1.47,2.543Z" transform="translate(-191 -117.766)" opacity="0.2"/>
      <path id="Path_6869" data-name="Path 6869" d="M555.3,373.237H471.675l16.2-23.538,1.166-1.7,21.116-30.675a4.273,4.273,0,0,1,6.342-.379,3.836,3.836,0,0,1,.3.379Z" transform="translate(-383.897 -272.002)" fill="#3f3d56"/>
      <path id="Path_6871" data-name="Path 6871" d="M593.256,214.838l1.306-1.807-1.324,2.254-.143-.25Z" transform="translate(-366.288 -130.324)" fill="#3f3d56"/>
      <path id="Path_6872" data-name="Path 6872" d="M591.083,219.538l-1.306-1.807,1.324,2.254.143-.25Z" transform="translate(-364.258 -133.199)" fill="#3f3d56"/>
      <circle id="Ellipse_380" data-name="Ellipse 380" cx="5.939" cy="5.939" r="5.939" transform="translate(47.49 75.91)" fill="#36eee0"/>
      <path id="Path_6873" data-name="Path 6873" d="M733.337,227.3h-1.216l.555-18.783Z" transform="translate(-679.336 -127.562)" fill="#3f3d56"/>
      <path id="Path_6874" data-name="Path 6874" d="M733.572,214.838l1.306-1.807-1.324,2.254-.143-.25Z" transform="translate(-452.125 -130.324)" fill="#3f3d56"/>
      <path id="Path_6875" data-name="Path 6875" d="M731.4,219.538l-1.306-1.807,1.324,2.254.143-.25Z" transform="translate(-450.096 -133.199)" fill="#3f3d56"/>
      <path id="Path_6876" data-name="Path 6876" d="M637.121,213.185h-1.8l.819-27.741Z" transform="translate(-527.479 -113.448)" fill="#3f3d56"/>
      <path id="Path_6877" data-name="Path 6877" d="M637.468,194.781l1.928-2.668-1.955,3.329-.212-.37Z" transform="translate(-393.287 -117.528)" fill="#3f3d56"/>
      <path id="Path_6878" data-name="Path 6878" d="M634.26,201.722l-1.929-2.668,1.955,3.328.212-.37Z" transform="translate(-390.29 -121.774)" fill="#3f3d56"/>
      <circle id="Ellipse_382" data-name="Ellipse 382" cx="8.771" cy="8.771" r="8.771" transform="translate(28.773 64.546)" fill="#36eee0"/>
      <path id="Path_6879" data-name="Path 6879" d="M692.215,213.185h-1.8l.819-27.741Z" transform="translate(-653.825 -113.448)" fill="#3f3d56"/>
      <path id="Path_6880" data-name="Path 6880" d="M692.562,194.781l1.929-2.668-1.955,3.329-.211-.37Z" transform="translate(-426.991 -117.528)" fill="#3f3d56"/>
      <path id="Path_6881" data-name="Path 6881" d="M689.353,201.722l-1.929-2.668,1.955,3.328.211-.37Z" transform="translate(-423.993 -121.774)" fill="#3f3d56"/>
      <circle id="Ellipse_383" data-name="Ellipse 383" cx="8.771" cy="8.771" r="8.771" transform="translate(65.935 64.546)" fill="#36eee0"/>
      <path id="Path_6882" data-name="Path 6882" d="M549.315,213.185h-1.8l.819-27.741Z" transform="translate(-473.764 -113.448)" fill="#3f3d56"/>
      <path id="Path_6883" data-name="Path 6883" d="M549.663,194.781l1.928-2.668-1.955,3.329-.211-.37Z" transform="translate(-339.573 -117.528)" fill="#3f3d56"/>
      <path id="Path_6884" data-name="Path 6884" d="M546.454,201.722l-1.929-2.668,1.955,3.328.211-.37Z" transform="translate(-336.575 -121.774)" fill="#3f3d56"/>
      <rect id="Rectangle_17982" data-name="Rectangle 17982" width="13.098" height="0.845" transform="translate(103.006 117.951)" fill="#4c5270"/>
      <rect id="Rectangle_17983" data-name="Rectangle 17983" width="13.098" height="0.845" transform="translate(140.187 117.951)" fill="#4c5270"/>
      <rect id="Rectangle_17984" data-name="Rectangle 17984" width="13.098" height="0.845" transform="translate(177.367 117.951)" fill="#4c5270"/>
      <rect id="Rectangle_17985" data-name="Rectangle 17985" width="13.098" height="0.845" transform="translate(214.548 117.951)" fill="#4c5270"/>
      <rect id="Rectangle_17986" data-name="Rectangle 17986" width="13.098" height="0.845" transform="translate(251.728 117.951)" fill="#fff"/>
      <path id="Path_6886" data-name="Path 6886" d="M728.312,295.39a11.258,11.258,0,0,0-2.347-2.214h4.9a8.2,8.2,0,0,0-2.554,2.214Z" transform="translate(-508.458 -258.628)" fill="none"/>
      <path id="Path_6887" data-name="Path 6887" d="M690.743,293.176h.845c-.182.128-.364.254-.537.392C690.952,293.435,690.846,293.306,690.743,293.176Z" transform="translate(-486.911 -258.628)" fill="none"/>
      <path id="Path_6888" data-name="Path 6888" d="M742.512,290.559a8.088,8.088,0,0,1,3.933,1.016h-7.855A8.053,8.053,0,0,1,742.512,290.559Z" transform="translate(-516.181 -257.027)" fill="#e6e6e6"/>
      <path id="Path_6889" data-name="Path 6889" d="M699.33,287.941a11.113,11.113,0,0,1,6.419,2.032h-12.83A11.11,11.11,0,0,1,699.33,287.941Z" transform="translate(-488.243 -255.426)" fill="#e6e6e6"/>
      <path id="Path_6890" data-name="Path 6890" d="M487,223.836a20.832,20.832,0,0,1,40.873-4.392c.252-.009.5-.019.759-.019a20.836,20.836,0,0,1,19.987,14.959,14.723,14.723,0,0,1,17.471,4.349H501.106a14.091,14.091,0,0,1-14.122-14.59Q486.99,223.99,487,223.836Z" transform="translate(-447.608 -235.493)" fill="#e6e6e6"/>
      <path id="Path_6891" data-name="Path 6891" d="M773.562,334.566a11.256,11.256,0,0,1,2.347-2.214h-4.9A8.2,8.2,0,0,1,773.562,334.566Z" transform="translate(-536.013 -282.593)" fill="none"/>
      <path id="Path_6892" data-name="Path 6892" d="M817.523,332.352h-.845c.182.128.364.254.537.392C817.314,332.611,817.42,332.482,817.523,332.352Z" transform="translate(-563.951 -282.594)" fill="none"/>
      <path id="Path_6893" data-name="Path 6893" d="M754.708,329.734a8.088,8.088,0,0,0-3.933,1.016h7.855a8.053,8.053,0,0,0-3.923-1.016Z" transform="translate(-523.636 -280.992)" fill="#e6e6e6"/>
      <path id="Path_6894" data-name="Path 6894" d="M790.051,327.117a11.113,11.113,0,0,0-6.419,2.032h12.83A11.111,11.111,0,0,0,790.051,327.117Z" transform="translate(-543.736 -279.391)" fill="#e6e6e6"/>
      <path id="Path_6895" data-name="Path 6895" d="M897.944,263.012a20.832,20.832,0,0,0-40.873-4.392c-.252-.009-.5-.019-.759-.019a20.836,20.836,0,0,0-19.987,14.959,14.723,14.723,0,0,0-17.47,4.349h64.983a14.091,14.091,0,0,0,14.122-14.59Q897.952,263.165,897.944,263.012Z" transform="translate(-709.299 -296.15)" fill="#e6e6e6"/>
      <g id="Group_8192" data-name="Group 8192" transform="translate(1.588 -48.612)">
        <rect id="Rectangle_18004" data-name="Rectangle 18004" width="7.553" height="1.199" transform="matrix(-1, -0.001, 0.001, -1, 296.889, 179.07)" fill="#3f3d56"/>
        <g id="Group_8191" data-name="Group 8191">
          <path id="Path_6896" data-name="Path 6896" d="M770.332,616.778l1.558.36,59.222.032.533-1.241a12.525,12.525,0,0,0,.921-6.772c-.255-1.714-.894-3.416-2.346-4.156l-2.628-17.5-32.764-.059L782.15,597.663s-5.98-.108-9.228,3.937a9.492,9.492,0,0,0-1.986,5.228l-.128,2.1Z" transform="translate(-535.599 -438.642)" fill="#36eee0"/>
          <circle id="Ellipse_384" data-name="Ellipse 384" cx="7.313" cy="7.313" r="7.313" transform="translate(240.427 170.531)" fill="#3f3d56"/>
          <circle id="Ellipse_385" data-name="Ellipse 385" cx="3.849" cy="3.849" r="3.849" transform="translate(243.891 173.995)" fill="#ccc"/>
          <circle id="Ellipse_386" data-name="Ellipse 386" cx="7.313" cy="7.313" r="7.313" transform="translate(276.512 170.55)" fill="#3f3d56"/>
          <circle id="Ellipse_387" data-name="Ellipse 387" cx="3.849" cy="3.849" r="3.849" transform="translate(279.975 174.014)" fill="#ccc"/>
          <path id="Path_6897" data-name="Path 6897" d="M656.92,395.372l17.69.007h2.159l3.646,0v-.266l0-3.206,0-3.6h-2.426l-2.16,0-3.825,0h-2.159l-4.416,0Z" transform="translate(-405.333 -237.545)" fill="#fff"/>
          <path id="Path_6898" data-name="Path 6898" d="M724.849,395.4l9.349.005,0-1.834v-3.206l0-2.031h-1.369l-2.16,0-5.823,0Z" transform="translate(-446.888 -237.562)" fill="#fff"/>
          <rect id="Rectangle_18005" data-name="Rectangle 18005" width="1.199" height="2.278" transform="matrix(-1, -0.001, 0.001, -1, 275.078, 165.392)" fill="#3f3d56"/>
          <rect id="Rectangle_18006" data-name="Rectangle 18006" width="1.199" height="2.278" transform="matrix(-0.001, 1, -1, -0.001, 256.382, 159.867)" fill="#3f3d56"/>
          <path id="Path_6899" data-name="Path 6899" d="M0,0H.132A2.506,2.506,0,0,1,2.637,2.506h0A2.506,2.506,0,0,1,.132,5.011H0Z" transform="matrix(-1, -0.001, 0.001, -1, 255.54, 160.394)" fill="#3f3d56"/>
          <path id="Path_6900" data-name="Path 6900" d="M771.559,631.244a3.873,3.873,0,0,0,2.114-7.332,9.493,9.493,0,0,0-1.986,5.228Z" transform="translate(-536.35 -460.954)" fill="#3f3d56"/>
          <path id="Path_6901" data-name="Path 6901" d="M705.639,388.316l4.58,6.808,0-3.206-2.423-3.6Z" transform="translate(-435.136 -237.554)" fill="#f2f2f2"/>
          <path id="Path_6902" data-name="Path 6902" d="M739.854,388.335l3.526,5.24v-3.206l-1.366-2.031Z" transform="translate(-456.067 -237.566)" fill="#f2f2f2"/>
          <path id="Path_6903" data-name="Path 6903" d="M690.225,388.309l4.759,7.074h2.159l-4.759-7.074Z" transform="translate(-425.707 -237.55)" fill="#f2f2f2"/>
        </g>
      </g>
      <rect id="Rectangle_18033" data-name="Rectangle 18033" width="13.098" height="0.845" transform="translate(70.006 117.951)" fill="#4c5270"/>
      <rect id="Rectangle_18040" data-name="Rectangle 18040" width="13.098" height="0.845" transform="translate(34.392 117.951)" fill="#4c5270"/>
    </g>
    <g id="Group_8196" data-name="Group 8196" transform="translate(7 -7)">
      <rect id="Rectangle_18008" data-name="Rectangle 18008" width="2" height="41" rx="1" transform="translate(142 395)" fill="#3f3d56"/>
      <rect id="Rectangle_18007" data-name="Rectangle 18007" width="30" height="31" rx="5" transform="translate(128 365)" fill="#36eee0"/>
      <text id="P" transform="translate(143 387)" fill="#fff" font-size="20" font-family="Nunito-Bold, Nunito" font-weight="700"><tspan x="-6.6" y="0">P</tspan></text>
    </g>
  </g>
</svg>
