<svg xmlns="http://www.w3.org/2000/svg" width="276.451" height="198.891" viewBox="0 0 276.451 198.891">
  <g id="Group_8194" data-name="Group 8194" transform="translate(-49.275 -192.219)">
    <g id="Group_8189" data-name="Group 8189" transform="translate(173.661 -211.003)">
      <path id="Path_4619" data-name="Path 4619" d="M1.261,0C.4,0,0,2.2,0,4.014A91.186,91.186,0,0,0,1.507,20.368c.185,0,.373-.012.564-.012,2.584,0,4.679.726,4.679,1.622S4.7,23.584,2.154,23.6c.039.178.077.356.118.533,2.491.037,4.48.747,4.48,1.622,0,.78-1.591,1.431-3.709,1.585,4.575,17.73,13.323,31.726,19.222,38.25h7.659V59.132C29.923,47.872,10.533,0,1.261,0Z" transform="translate(-108 531.031) rotate(-8)" fill="#36eee0"/>
      <g id="Layer_2" data-name="Layer 2" transform="translate(-45.162 420.98)">
        <g id="vector" transform="translate(0 0)">
          <rect id="Rectangle_17970" data-name="Rectangle 17970" width="4.387" height="2.929" transform="translate(111.032 167.369)" fill="#e49d75"/>
          <rect id="Rectangle_17971" data-name="Rectangle 17971" width="4.117" height="3.648" transform="matrix(0.778, -0.628, 0.628, 0.778, 133.857, 164.542)" fill="#e49d75"/>
          <rect id="Rectangle_17972" data-name="Rectangle 17972" width="3.471" height="4.111" rx="1.736" transform="translate(116.502 47.763)" fill="#e49d75"/>
          <path id="Path_6853" data-name="Path 6853" d="M572.378,566.7c.6,1.367,5.166,28.8,5.838,31.394s11.415,19.512,12.146,20.523c.224,1.462-3.094,3.936-4.667,3.936-1.574-1.244-19.953-27.875-20.394-29.057S563.379,564.021,572.378,566.7Z" transform="translate(-452.683 -457.132)" fill="#5daea8"/>
          <path id="Path_6854" data-name="Path 6854" d="M505.789,544.283c-.209,1.133,2.9,27.023,3.282,30.5s6.336,31.49,6.863,32.189,4.532.548,5.224.2-1.351-29.208-1.351-31.3,5.365-21.39,4.675-26.979S505.789,544.283,505.789,544.283Z" transform="translate(-405.282 -439.259)" fill="#36eee0"/>
          <rect id="Rectangle_17973" data-name="Rectangle 17973" width="4.194" height="7.3" transform="translate(111.541 73.639)" fill="#e49d75"/>
          <ellipse id="Ellipse_373" data-name="Ellipse 373" cx="5.762" cy="7.749" rx="5.762" ry="7.749" transform="translate(107.334 59.341)" fill="#e49d75"/>
          <path id="Path_6857" data-name="Path 6857" d="M516.179,415.77c-6.986,0-13.213,19.381-12.017,25.813.354,1.9,17.072,5.732,19.627,5.2C524.7,445.543,528.4,415.77,516.179,415.77Z" transform="translate(-403.868 -336.335)" fill="#ffd98e"/>
          <path id="Path_6858" data-name="Path 6858" d="M514.368,415.76c3.128-2.269-1.872-13.265-3.04-13.454-2.152-.348-7.5,3.775-7.334,5.508C504.084,408.728,511.183,418.071,514.368,415.76Z" transform="translate(-403.849 -325.53)" fill="#fffbea"/>
          <path id="Path_6859" data-name="Path 6859" d="M487.365,280.836a32.642,32.642,0,0,1-3.179-7.135c-.23-1.174-.795-18.825-.795-19.87S482,250.149,482,248.576s1.6-3.708,2.416-3.736c.87.618,2.078,4.242,2.134,5.166a2.587,2.587,0,0,1,2.136-2.444c.393,0,.342,3.07-1.288,5.136.058,1.518,1.987,16.553,2.3,17.424s3.865,6.575,3.857,7.08S487.365,280.836,487.365,280.836Z" transform="translate(-386.228 -199.368)" fill="#e49d75"/>
          <rect id="Rectangle_17975" data-name="Rectangle 17975" width="71.155" height="2.033" transform="matrix(0.991, 0.135, -0.135, 0.991, 73.6, 43.743)" fill="#6c63ff"/>
          <rect id="Rectangle_17976" data-name="Rectangle 17976" width="4.351" height="5.887" transform="matrix(0.991, 0.135, -0.135, 0.991, 73.324, 45.756)" fill="#6c63ff"/>
          <rect id="Rectangle_17977" data-name="Rectangle 17977" width="2.341" height="5.887" transform="matrix(0.991, 0.135, -0.135, 0.991, 79.469, 46.596)" fill="#6c63ff"/>
          <path id="Path_6860" data-name="Path 6860" d="M585.549,277a60.639,60.639,0,0,1-.06-8.731c.254-.964.942-1.667,1.25-3.106.105-.495-.062-2.208-.4-2.279-.723-.155-.765.656-.86,1.252-.37,2.033-1.123,1.661-1.47,1.613s-1.542-.254-1.933-.264.606.795.3,2.08c-.238,1.011-1.359,7.749-1.59,8.852C581.627,276.449,585.549,277,585.549,277Z" transform="translate(-465.388 -213.81)" fill="#e49d75"/>
          <rect id="Rectangle_17978" data-name="Rectangle 17978" width="2.341" height="5.887" transform="matrix(0.991, 0.135, -0.135, 0.991, 83.427, 47.135)" fill="#6c63ff"/>
          <rect id="Rectangle_17979" data-name="Rectangle 17979" width="12.536" height="2.086" transform="matrix(0.991, 0.135, -0.135, 0.991, 73.324, 45.757)" fill="#6c63ff"/>
          <path id="Path_6861" data-name="Path 6861" d="M710.551,263.883a5.273,5.273,0,1,0,3.489,2.037A5.274,5.274,0,0,0,710.551,263.883Zm2.843,5.711a3.59,3.59,0,1,1-3.07-4.044A3.59,3.59,0,0,1,713.394,269.594Z" transform="translate(-564.57 -214.588)" fill="#6c63ff"/>
          <path id="Path_6862" data-name="Path 6862" d="M487.477,252.691c-.262-1.027-.773-1.925-.856-2.7v.024c-.056-.926-1.264-4.55-2.134-5.166-.815.028-2.416,2.162-2.416,3.736a17.048,17.048,0,0,0,1.156,4.131h4.242Z" transform="translate(-386.284 -199.376)" fill="#e49d75"/>
          <path id="Path_6863" data-name="Path 6863" d="M543.06,313.088c0,2.68,1.892,4.334,4.89,5.256,0,3.668.566,3.829.566,6.062,0,4.812-.821,2.406-.821,10.716,0,5.011,2.1,7.737,5.961,7.737,4.671,0,7.352-4.942,7.352-7.6,0-3.378-3.342-9.247-3.577-14.121-.324-6.557-2.363-12.043-7.475-12.043C545.589,309.09,543.06,310.715,543.06,313.088Z" transform="translate(-435.155 -250.852)"/>
          <circle id="Ellipse_374" data-name="Ellipse 374" cx="1.55" cy="1.55" r="1.55" transform="translate(111.541 66.569)" fill="#e49d75"/>
          <path id="Path_6864" data-name="Path 6864" d="M670.576,842.49l2.484,3.39-5.2,7.352-4.9.032.064-2.486,1.969-.87,1.75-4.32Z" transform="translate(-531.232 -678.267)" fill-rule="evenodd"/>
          <path id="Path_6865" data-name="Path 6865" d="M523.689,871.83v4.95H509.14v-2.192l9.6-2.758h4.95" transform="translate(-407.975 -701.777)"/>
        </g>
      </g>
    </g>
    <g id="Group_8193" data-name="Group 8193" transform="translate(49.275 192.219)">
      <path id="Path_6904" data-name="Path 6904" d="M371,580.68q-21.367-3.129-41.1-5.4l5.2-8.417c-1.753-.518-9.458,4.28-9.458,4.28l6.828-24.47c-8.819.85-13.306,25.847-13.306,25.847l-9.853-8.5,4.769,9.531c-40.258-4.155-75.027-5.788-104.272-5.976l4.452-7.2c-1.753-.518-9.458,4.28-9.458,4.28l6.828-24.47c-8.819.849-13.306,25.847-13.306,25.847l-9.852-8.5,5.051,10.1c-24.517.3-44.51,1.606-59.942,3.131,4.5-11.234,19.8-21.867,19.8-21.867-11.679,2.854-17.806,7.7-21.008,12.227a167.874,167.874,0,0,1,13.634-68.12s-24.146,43.867-21.07,73.4l.368,5.244c-20.466,2.359-30.755,4.864-30.755,4.864Z" transform="translate(-94.554 -381.788)" fill="#4c5270"/>
      <path id="Path_6905" data-name="Path 6905" d="M398.567,94.324V271.588a7.969,7.969,0,0,1-7.966,7.961H318.637a7.952,7.952,0,0,1-7.966-7.961V94.324a7.966,7.966,0,0,1,7.967-7.966h10.769v1.381a6.56,6.56,0,0,0,6.559,6.561h36.6a6.506,6.506,0,0,0,3.889-1.28,6.1,6.1,0,0,0,.645-.541,6.541,6.541,0,0,0,2.024-4.739V86.358H390.6a7.964,7.964,0,0,1,7.966,7.966Z" transform="translate(-251.569 -86.358)" fill="#4c5270"/>
      <circle id="Ellipse_388" data-name="Ellipse 388" cx="1.914" cy="1.914" r="1.914" transform="translate(77.235 27.621)" fill="#f2f2f2"/>
      <path id="Path_6906" data-name="Path 6906" d="M551.866,108.738a6.1,6.1,0,0,1-.645.541,34.252,34.252,0,0,0,22.113,16.46v-.853A33.446,33.446,0,0,1,551.866,108.738Z" transform="translate(-426.336 -102.618)" fill="#36eee0"/>
      <path id="Path_6907" data-name="Path 6907" d="M491.388,115.4h-.9a49.681,49.681,0,0,0,38.721,30.916v-.848A48.828,48.828,0,0,1,491.388,115.4Z" transform="translate(-382.214 -107.456)" fill="#36eee0"/>
      <path id="Path_6908" data-name="Path 6908" d="M431.055,115.4h-.864a65.5,65.5,0,0,0,55.211,46.8v-.834A64.672,64.672,0,0,1,431.055,115.4Z" transform="translate(-338.404 -107.456)" fill="#36eee0"/>
      <path id="Path_6909" data-name="Path 6909" d="M263.52,158.5h-.5V158h-.1v.5h-.5v.1h.5v.5h.1v-.5h.5Z" transform="translate(-190.66 -114.792)" fill="#f2f2f2"/>
      <path id="Path_6910" data-name="Path 6910" d="M386.52,67.5h-.5V67h-.1v.5h-.5v.1h.5v.5h.1v-.5h.5Z" transform="translate(-280.023 -48.677)" fill="#f2f2f2"/>
      <path id="Path_6911" data-name="Path 6911" d="M281.52,230.5h-.5V230h-.1v.5h-.5v.1h.5v.5h.1v-.5h.5Z" transform="translate(-203.738 -167.102)" fill="#f2f2f2"/>
      <path id="Path_6912" data-name="Path 6912" d="M365.52,177.5h-.5V177h-.1v.5h-.5v.1h.5v.5h.1v-.5h.5Z" transform="translate(-264.766 -128.596)" fill="#f2f2f2"/>
      <path id="Path_6913" data-name="Path 6913" d="M485.52,210.5h-.5V210h-.1v.5h-.5v.1h.5v.5h.1v-.5h.5Z" transform="translate(-351.95 -152.571)" fill="#f2f2f2"/>
      <circle id="Ellipse_389" data-name="Ellipse 389" cx="1.094" cy="1.094" r="1.094" transform="translate(126.733 33.09)" fill="#ff6584"/>
      <path id="Path_6914" data-name="Path 6914" d="M417.032,305.158l-.621.1c.194,1.242.347,2.51.459,3.766l.626-.055C417.385,307.693,417.229,306.413,417.032,305.158Z" transform="translate(-328.393 -245.322)" fill="#e6e6e6"/>
      <path id="Path_6915" data-name="Path 6915" d="M410.873,277.818l-.6.183c.364,1.2.689,2.437.965,3.664l.615-.139C411.57,280.285,411.239,279.038,410.873,277.818Z" transform="translate(-323.932 -225.459)" fill="#e6e6e6"/>
      <path id="Path_6916" data-name="Path 6916" d="M401.043,251.6l-.572.263c.525,1.146,1.017,2.322,1.463,3.5l.588-.222C402.071,253.947,401.576,252.755,401.043,251.6Z" transform="translate(-316.812 -206.41)" fill="#e6e6e6"/>
      <path id="Path_6917" data-name="Path 6917" d="M387.752,227.018l-.531.336c.675,1.061,1.324,2.16,1.925,3.263l.552-.3C389.092,229.2,388.435,228.09,387.752,227.018Z" transform="translate(-307.185 -188.552)" fill="#e6e6e6"/>
      <path id="Path_6918" data-name="Path 6918" d="M371.23,204.488l-.479.407c.815.957,1.608,1.958,2.357,2.97l.5-.375C372.857,206.468,372.055,205.456,371.23,204.488Z" transform="translate(-295.219 -172.183)" fill="#e6e6e6"/>
      <path id="Path_6919" data-name="Path 6919" d="M351.809,184.428l-.418.468c.941.84,1.862,1.723,2.74,2.623l.451-.44C353.694,186.167,352.761,185.276,351.809,184.428Z" transform="translate(-281.154 -157.609)" fill="#e6e6e6"/>
      <path id="Path_6920" data-name="Path 6920" d="M329.864,167.208l-.353.52c1.045.7,2.078,1.452,3.071,2.226l.388-.5C331.964,168.677,330.919,167.919,329.864,167.208Z" transform="translate(-265.257 -145.098)" fill="#e6e6e6"/>
      <path id="Path_6921" data-name="Path 6921" d="M310.671,155.248v.711c.654.342,1.3.7,1.936,1.067l.314-.544Q311.814,155.841,310.671,155.248Z" transform="translate(-251.569 -136.409)" fill="#e6e6e6"/>
      <path id="Path_6922" data-name="Path 6922" d="M418.161,516.231c.1-.612.2-1.236.278-1.856l.623.083c-.083.627-.177,1.258-.281,1.876Z" transform="translate(-329.664 -397.325)" fill="#e6e6e6"/>
      <path id="Path_6923" data-name="Path 6923" d="M411.752,538.421l.6.187c.377-1.215.718-2.46,1.014-3.7l-.612-.145C412.461,535.99,412.126,537.219,411.752,538.421Z" transform="translate(-325.008 -412.137)" fill="#e6e6e6"/>
      <path id="Path_6924" data-name="Path 6924" d="M401.71,564.714l.571.267c.543-1.151,1.05-2.336,1.511-3.523l-.587-.229C402.749,562.4,402.247,563.576,401.71,564.714Z" transform="translate(-317.712 -431.365)" fill="#e6e6e6"/>
      <path id="Path_6925" data-name="Path 6925" d="M388.2,589.572l.527.342c.7-1.066,1.363-2.172,1.984-3.284l-.548-.307C389.549,587.422,388.887,588.515,388.2,589.572Z" transform="translate(-307.896 -449.597)" fill="#e6e6e6"/>
      <path id="Path_6926" data-name="Path 6926" d="M371.482,612.514l.477.413c.837-.965,1.648-1.969,2.416-2.984l-.5-.377C373.114,610.57,372.311,611.561,371.482,612.514Z" transform="translate(-295.75 -466.484)" fill="#e6e6e6"/>
      <path id="Path_6927" data-name="Path 6927" d="M351.907,633.092l.414.473c.962-.839,1.9-1.724,2.8-2.623l-.445-.445C353.788,631.386,352.856,632.259,351.907,633.092Z" transform="translate(-281.529 -481.69)" fill="#e6e6e6"/>
      <path id="Path_6928" data-name="Path 6928" d="M329.855,650.95l.347.526c1.062-.7,2.116-1.448,3.128-2.218l-.38-.5C331.948,649.519,330.906,650.258,329.855,650.95Z" transform="translate(-265.507 -494.956)" fill="#e6e6e6"/>
      <path id="Path_6929" data-name="Path 6929" d="M312.993,664.562c-.76.429-1.537.845-2.322,1.239V665.1c.678-.345,1.351-.708,2.01-1.077Z" transform="translate(-251.569 -506.045)" fill="#e6e6e6"/>
      <path id="Path_6930" data-name="Path 6930" d="M418.836,333.434l.629-.011c.012.635.012,1.273,0,1.9l-.629-.01C418.848,334.692,418.847,334.061,418.836,333.434Z" transform="translate(-330.154 -265.857)" fill="#e6e6e6"/>
      <path id="Path_6931" data-name="Path 6931" d="M226.216,301.632h64.323a18.049,18.049,0,0,1,18.049,18.049v2.389H244.265a18.049,18.049,0,0,1-18.049-18.049v-2.389Z" transform="translate(-164.353 -219.144)" fill="#fff"/>
      <path id="Path_6932" data-name="Path 6932" d="M470.968,606.6c-.063-.1-1.543-2.573-2.056-7.7-.471-4.707-.168-12.642,3.947-23.709a47.813,47.813,0,0,0-1.895-38.053l.473-.274A41.994,41.994,0,0,1,475.4,548.08a48.968,48.968,0,0,1-2.028,27.294c-7.782,20.931-2,30.84-1.937,30.938Z" transform="translate(-366.415 -413.658)" fill="#f2f2f2"/>
      <circle id="Ellipse_390" data-name="Ellipse 390" cx="3.555" cy="3.555" r="3.555" transform="translate(97.949 115.131)" fill="#36eee0"/>
      <circle id="Ellipse_391" data-name="Ellipse 391" cx="3.555" cy="3.555" r="3.555" transform="translate(109.161 128.258)" fill="#f2f2f2"/>
      <circle id="Ellipse_392" data-name="Ellipse 392" cx="3.555" cy="3.555" r="3.555" transform="translate(101.504 137.009)" fill="#36eee0"/>
      <circle id="Ellipse_393" data-name="Ellipse 393" cx="3.555" cy="3.555" r="3.555" transform="translate(110.802 144.393)" fill="#36eee0"/>
      <circle id="Ellipse_394" data-name="Ellipse 394" cx="3.555" cy="3.555" r="3.555" transform="translate(98.769 155.879)" fill="#f2f2f2"/>
      <path id="Path_6933" data-name="Path 6933" d="M483.213,751.672s-3.555-8.751,7.11-15.314Z" transform="translate(-376.513 -558.602)" fill="#f2f2f2"/>
      <path id="Path_6934" data-name="Path 6934" d="M431.168,767.264s-1.618-9.306-14.141-9.226Z" transform="translate(-328.84 -574.352)" fill="#f2f2f2"/>
      <circle id="Ellipse_395" data-name="Ellipse 395" cx="21.878" cy="21.878" r="21.878" transform="translate(66.296 70.829)" fill="#36eee0" opacity="0.2"/>
      <circle id="Ellipse_396" data-name="Ellipse 396" cx="15.407" cy="15.407" r="15.407" transform="translate(72.767 77.3)" fill="#36eee0" opacity="0.2"/>
      <circle id="Ellipse_397" data-name="Ellipse 397" cx="10.169" cy="10.169" r="10.169" transform="translate(78.006 82.538)" fill="#36eee0"/>
      <path id="Path_6935" data-name="Path 6935" d="M413.917,412.424a1.849,1.849,0,1,0-3.017,1.433l-.681,4.766h3.7l-.681-4.766A1.845,1.845,0,0,0,413.917,412.424Z" transform="translate(-323.894 -321.911)" fill="#fff"/>
    </g>
  </g>
</svg>
