<svg xmlns="http://www.w3.org/2000/svg" width="199.974" height="198.111" viewBox="0 0 199.974 198.111">
  <g id="Group_8208" data-name="Group 8208" transform="translate(-95.664 -207.889)">
    <g id="_015-drawkit-mobile-article-colour" data-name="015-drawkit-mobile-article-colour" transform="translate(95.664 207.889)">
      <g id="Background_elements" data-name="Background elements" transform="translate(54.404 0)">
        <path id="Path_4606" data-name="Path 4606" d="M445.663,133.853V216.7A10.962,10.962,0,0,1,434.7,227.66H370.3A10.962,10.962,0,0,1,359.34,216.7V52.3A10.963,10.963,0,0,1,370.3,41.34h64.4A10.963,10.963,0,0,1,445.663,52.3v81.553" transform="translate(-354.108 -35.44)" fill="#fff"/>
        <rect id="Rectangle_17435" data-name="Rectangle 17435" width="43.055" height="10.75" rx="5.375" transform="translate(26.865 1.573)" fill="#f3f3f3"/>
        <path id="Path_4607" data-name="Path 4607" d="M408.924,6H343.86A15.87,15.87,0,0,0,328,21.87V188.241a15.87,15.87,0,0,0,15.86,15.87h65.064a15.87,15.87,0,0,0,15.87-15.87V21.87A15.87,15.87,0,0,0,408.924,6Zm10.631,98.413v82.845a10.962,10.962,0,0,1-10.962,10.962h-64.4a10.962,10.962,0,0,1-10.962-10.962V22.862A10.963,10.963,0,0,1,344.192,11.9h64.4a10.963,10.963,0,0,1,10.962,10.96Z" transform="translate(-328 -6)" fill="#f3f3f3"/>
        <rect id="Rectangle_17436" data-name="Rectangle 17436" width="67.484" height="36.824" rx="4" transform="translate(16.967 21.941)" fill="#f3f3f3"/>
        <rect id="Rectangle_17437" data-name="Rectangle 17437" width="94.419" height="3.26" transform="translate(16.967 86.747)" fill="#f3f3f3"/>
        <rect id="Rectangle_17438" data-name="Rectangle 17438" width="94.419" height="3.26" transform="translate(16.967 95.321)" fill="#f3f3f3"/>
        <rect id="Rectangle_17439" data-name="Rectangle 17439" width="94.419" height="3.26" transform="translate(16.967 103.894)" fill="#f3f3f3"/>
        <rect id="Rectangle_17440" data-name="Rectangle 17440" width="94.419" height="3.26" transform="translate(16.967 112.468)" fill="#f3f3f3"/>
        <rect id="Rectangle_17441" data-name="Rectangle 17441" width="94.419" height="3.26" transform="translate(16.967 121.042)" fill="#f3f3f3"/>
        <rect id="Rectangle_17442" data-name="Rectangle 17442" width="94.419" height="3.26" transform="translate(16.967 129.617)" fill="#f3f3f3"/>
        <rect id="Rectangle_17443" data-name="Rectangle 17443" width="94.419" height="3.26" transform="translate(16.967 138.191)" fill="#f3f3f3"/>
        <rect id="Rectangle_17444" data-name="Rectangle 17444" width="94.419" height="3.26" transform="translate(16.967 146.765)" fill="#f3f3f3"/>
        <rect id="Rectangle_17445" data-name="Rectangle 17445" width="65.69" height="3.26" transform="translate(35.516 161.637)" fill="#f3f3f3"/>
        <rect id="Rectangle_17446" data-name="Rectangle 17446" width="72.416" height="3.26" transform="translate(35.516 168.492)" fill="#f3f3f3"/>
        <rect id="Rectangle_17447" data-name="Rectangle 17447" width="10.661" height="3.386" transform="translate(12.594 77.952)" fill="#f3f3f3"/>
        <rect id="Rectangle_17448" data-name="Rectangle 17448" width="10.661" height="3.386" transform="translate(25.89 77.952)" fill="#f3f3f3"/>
        <rect id="Rectangle_17449" data-name="Rectangle 17449" width="10.661" height="3.386" transform="translate(40.079 77.952)" fill="#f3f3f3"/>
        <circle id="Ellipse_56" data-name="Ellipse 56" cx="7.087" cy="7.087" r="7.087" transform="translate(17.566 159.158)" fill="#f3f3f3"/>
        <rect id="Rectangle_17450" data-name="Rectangle 17450" width="87.798" height="6.96" transform="translate(16.967 64.878)" fill="#e2e2e2"/>
      </g>
      <g id="Vector" transform="translate(0 12.187)">
        <rect id="Rectangle_17451" data-name="Rectangle 17451" width="6.194" height="5.526" transform="translate(53.311 169.739) rotate(-53.17)" fill="#de8e68"/>
        <rect id="Rectangle_17452" data-name="Rectangle 17452" width="6.743" height="4.392" transform="translate(42.81 175.308)" fill="#de8e68"/>
        <path id="Path_4608" data-name="Path 4608" d="M107.554,629.41S93.93,675.938,93.93,676.881,131.957,708.9,132.661,708.9s3.631-5.676,3.631-6.663-9.052-8.454-9.052-8.454Z" transform="translate(-78.603 -537.522)" fill="#5daea8"/>
        <path id="Path_4609" data-name="Path 4609" d="M196.413,709.119l4.229-84.279c-1.987,1.426-12.217,4.341-25.1.763.895,7.4,13.523,83.974,13.523,83.974h7.309Z" transform="translate(-146.588 -533.714)" fill="#36eee0"/>
        <path id="Path_4610" data-name="Path 4610" d="M44.018,414.755c-1.7-.933-19.8-12.9-22.765-12.9s-2.718,1.746-2.718,2.274.364,4.017,8.643,6.167c.73.893,12.821,13.147,16.432,14.608C43.651,421.044,44.018,414.755,44.018,414.755Z" transform="translate(-15.791 -347.952)" fill="#de8e68"/>
        <path id="Path_4611" data-name="Path 4611" d="M177.2,259.11c-22.469,0-14.578,60.092-13.344,61.82s24.157,2.908,25.566-1.481C190.351,316.544,195.147,259.11,177.2,259.11Z" transform="translate(-134.9 -229.041)" fill="#fed385"/>
        <path id="Path_4612" data-name="Path 4612" d="M11.968,389.407,2.12,382.987,7.5,380.01l9.606,6.045Z" transform="translate(-2.12 -329.758)" fill="#333"/>
        <path id="Path_4613" data-name="Path 4613" d="M258.2,403.927c-.042,1.669,1.387,12.993,3.442,18.436-.778,4.007-5.053,26.432-5.053,26.432l3.005,3.887s11-23.349,11.551-27-.778-21.755-1-22.643S258.2,403.927,258.2,403.927Z" transform="translate(-214.107 -348.735)" fill="#de8e68"/>
        <path id="Path_4614" data-name="Path 4614" d="M261.307,293.326c6.706-.147,8.593,17.675,7.462,19.257s-13.077,2.79-14.434,1.282S254.208,293.481,261.307,293.326Z" transform="translate(-211.824 -257.544)" fill="#fed892"/>
        <path id="Path_4615" data-name="Path 4615" d="M230.587,206.54H223.12v11.733c0,1.5,7.467,1.414,7.467,0Z" transform="translate(-186.225 -185.248)" fill="#d37c59"/>
        <ellipse id="Ellipse_57" data-name="Ellipse 57" cx="12.097" cy="7.037" rx="12.097" ry="7.037" transform="translate(31.157 27.492) rotate(-86.74)" fill="#de8e68"/>
        <path id="Path_4616" data-name="Path 4616" d="M147,91.187c0-1.169.668-2.5.668-3.84,0-1.169-.5-2.5-.5-4.174,0-2.838,2.838-4.174,4.341-4.174,2.838,0,3.506,2,8.013,2,2.671,0,3.84-.668,5.342-.668,4.674,0,5.342,5.843,5.342,6.511,0,2.838,3.84,3.005,3.84,6.01,0,2.838-3.005,6.177-5.342,6.177S164.2,96.863,164.2,96.2c0-1.5.334-1.836.334-2.838,0-3.506-7.639-4.341-8.808-4.341a21.169,21.169,0,0,0-1.042,5.509,7.442,7.442,0,0,1-2.671.5C151.174,95.027,147,94.025,147,91.187Z" transform="translate(-122.813 -79)" fill="#6c63ff"/>
        <circle id="Ellipse_58" data-name="Ellipse 58" cx="1.753" cy="1.753" r="1.753" transform="translate(42.885 18.698)" fill="#de8e68"/>
        <path id="Path_4617" data-name="Path 4617" d="M206.543,1152.42h-7.167l-11.516,4.549v1.731h18.683Z" transform="translate(-156.852 -973.217)"/>
        <path id="Path_4618" data-name="Path 4618" d="M333.783,1083.69l-3.947,5.269-3,10.972,1.272.953,10.287-13.736Z" transform="translate(-272.629 -915.961)"/>
        <path id="Path_4619" data-name="Path 4619" d="M714.388,706.1c-1.06,0-1.558,2.713-1.558,4.958a112.638,112.638,0,0,0,1.861,20.2c.229,0,.461-.015.7-.015,3.192,0,5.78.9,5.78,2s-2.534,1.983-5.676,2c.048.22.1.439.145.658,3.077.045,5.534.923,5.534,2,0,.963-1.965,1.768-4.581,1.958,5.651,21.9,16.456,39.187,23.743,47.246h9.461v-7.977C749.79,765.231,725.84,706.1,714.388,706.1Z" transform="translate(-594.18 -601.408)" fill="#5daea8"/>
        <path id="Path_4620" data-name="Path 4620" d="M899.929,676.045c-6.259,0-6.925,6.715-11.16,6.715-1.634,0-2.087-1.725-2.087-3.357,0-2.783,4.5-13.114,4.873-19.748a7.348,7.348,0,0,1-1.336.12c-2.962,0-5.364-1.721-5.364-3.84s2.4-3.84,5.364-3.84c.134,0,.265,0,.4.012-1.417-4.886-4.733-9.987-12.02-9.987-11.977,0-15.244,21.232-17.059,29.852-1.123,5.342-13.077,24.5-13.077,38.678,0,12.5,3.84,23.157,4.841,23.157h12.042c0-3.84,7.467-10.933,9.244-12.875,12.29-13.434,32.554-19.544,32.554-35.259C907.148,682.215,906.272,676.045,899.929,676.045Z" transform="translate(-707.167 -548.11)" fill="#36eee0"/>
      </g>
    </g>
    <g id="Group_8198" data-name="Group 8198" transform="matrix(0.998, -0.07, 0.07, 0.998, 161.86, 226.558)">
      <rect id="Rectangle_18038" data-name="Rectangle 18038" width="31.938" height="64.293" transform="translate(1.371 34.446) rotate(-85.49)" fill="#fff"/>
      <path id="Path_6969" data-name="Path 6969" d="M4.321,1.187A7.513,7.513,0,0,0,0,0,7.518,7.518,0,0,0,2.522,3.7,7.506,7.506,0,0,0,6.843,4.891,7.519,7.519,0,0,0,4.321,1.187Z" transform="translate(6.41 3.887)" fill="#4c5270"/>
      <path id="Path_6970" data-name="Path 6970" d="M12.8.819,2.506.007A2.323,2.323,0,1,0,2.14,4.639h0l10.292.812A2.323,2.323,0,1,0,12.8.819Z" transform="translate(4.121 24.514)" fill="#4c5270"/>
      <path id="Path_6971" data-name="Path 6971" d="M65.45,4.568,7.748.016A5.126,5.126,0,0,0,2.235,4.724L.016,32.836a5.129,5.129,0,0,0,4.709,5.516l57.7,4.552A5.126,5.126,0,0,0,67.94,38.2l2.109-26.719.042-.546.067-.849A5.126,5.126,0,0,0,65.45,4.568Zm-1.7,24.459-.366,4.631A3.1,3.1,0,0,1,60.049,36.5l-7.72-.608a3.1,3.1,0,0,1-2.843-3.332l.366-4.631a3.106,3.106,0,0,1,3.332-2.843L60.9,25.7a3.108,3.108,0,0,1,2.845,3.331ZM3.618,26.612a2.839,2.839,0,0,1,3.05-2.6l10.291.812a2.838,2.838,0,0,1-.441,5.659h-.005L6.221,29.668a2.836,2.836,0,0,1-2.6-3.056Zm2.2-22.907-.07-.288.3-.027a8.09,8.09,0,0,1,4.984,1.264,8.118,8.118,0,0,1,2.813,4.3l.068.289-.3.03a7.807,7.807,0,0,1-1.259-.008A7.447,7.447,0,0,1,8.631,8.011a8.085,8.085,0,0,1-2.81-4.305Z" fill="#4c5270"/>
      <path id="Path_6972" data-name="Path 6972" d="M4.319.267.974,0A.9.9,0,0,0,.832,1.8l3.345.264a.9.9,0,1,0,.142-1.8Z" transform="translate(50.769 31.832)" fill="#4c5270"/>
      <path id="Path_6973" data-name="Path 6973" d="M4.319.267.974,0A.9.9,0,0,0,.832,1.8l3.345.264a.9.9,0,1,0,.142-1.8Z" transform="translate(56.945 32.319)" fill="#4c5270"/>
      <path id="Path_6974" data-name="Path 6974" d="M4.319.267.974,0A.9.9,0,1,0,.832,1.8l3.345.264a.9.9,0,1,0,.142-1.8Z" transform="translate(50.952 29.516)" fill="#4c5270"/>
      <path id="Path_6975" data-name="Path 6975" d="M4.319.267.974,0A.9.9,0,0,0,.832,1.8l3.345.264a.9.9,0,0,0,.142-1.8Z" transform="translate(57.127 30.003)" fill="#4c5270"/>
      <path id="Path_6976" data-name="Path 6976" d="M4.319.267.974,0A.9.9,0,0,0,.832,1.8l3.345.264a.9.9,0,1,0,.142-1.8Z" transform="translate(51.135 27.201)" fill="#4c5270"/>
      <path id="Path_6977" data-name="Path 6977" d="M4.319.267.974,0A.9.9,0,1,0,.832,1.8l3.345.264a.9.9,0,1,0,.142-1.8Z" transform="translate(57.31 27.688)" fill="#4c5270"/>
      <rect id="Rectangle_18039" data-name="Rectangle 18039" width="0.549" height="67.943" transform="translate(1.334 14.141) rotate(-85.509)" fill="#fff"/>
      <path id="Path_6978" data-name="Path 6978" d="M27.516,2.158l-.043.546-2.357-.185L0,.547.045,0,25.158,1.973Z" transform="translate(42.575 8.772)" fill="#3f3d56"/>
    </g>
  </g>
</svg>
