<svg xmlns="http://www.w3.org/2000/svg" width="155.521" height="212.199" viewBox="0 0 155.521 212.199">
  <g id="Group_8207" data-name="Group 8207" transform="translate(-3502.144 -5963.84)">
    <g id="Layer_2" data-name="Layer 2" transform="translate(3502.144 5941.84)">
      <g id="vector">
        <path id="Path_6838" data-name="Path 6838" d="M38.135,354.452C36.716,351.022,33.3,336.4,21.683,336.4,16.2,336.4,7.5,342.1,7.5,351.443c0,5.333,3.7,12.018,7.184,18.99a8.659,8.659,0,1,1,5.754,15.207c5.64,31.972,19.306,35.86,22.63,35.86s7.414-38.681,7.414-43.193S44.043,368.742,38.135,354.452Z" transform="translate(-5.261 -235.957)" fill="#4c5270"/>
        <path id="Path_6839" data-name="Path 6839" d="M143.675,419.37a7.465,7.465,0,1,1,2.738-14.416c-.066-6.288-3.156-18.175-16.861-18.175-7.423,0-12.242,10.638-13.436,19.772-.988,7.548-8.166,19.984-8.166,30.085,0,13.538,9.026,23.743,13.215,23.743,8.808,0,19.109-22.812,23.3-41.052A7.663,7.663,0,0,1,143.675,419.37Z" transform="translate(-78.795 -271.294)" fill="#36eee0"/>
        <path id="Path_6840" data-name="Path 6840" d="M146.871,519.328c-.6-3.667-2.257-26.828,7.823-44.328" transform="translate(-112.209 -333.173)" fill="none" stroke="#ffd98e" stroke-linecap="round" stroke-linejoin="round" stroke-width="2.19"/>
        <path id="Path_6841" data-name="Path 6841" d="M57.3,379a105.025,105.025,0,0,1,11.019,21.269,152.463,152.463,0,0,1,10.106,46.924" transform="translate(-40.191 -265.837)" fill="none" stroke="#36eee0" stroke-linecap="round" stroke-linejoin="round" stroke-width="2.19"/>
        <path id="Path_6842" data-name="Path 6842" d="M81.781,665.129H93.127l13.138-50.759H57.3l13.138,50.759Z" transform="translate(-40.191 -430.93)" fill="#c9c9c9"/>
        <circle id="Ellipse_372" data-name="Ellipse 372" cx="18.575" cy="18.575" r="18.575" transform="translate(117.595 28.965)" fill="#4c5270"/>
        <line id="Line_359" data-name="Line 359" y1="13.278" transform="translate(138.365 34.262)" fill="none" stroke="#36eee0" stroke-linecap="round" stroke-linejoin="round" stroke-width="3"/>
        <line id="Line_360" data-name="Line 360" x2="8.578" transform="translate(136.985 47.54)" fill="none" stroke="#36eee0" stroke-linecap="round" stroke-linejoin="round" stroke-width="3"/>
        <rect id="Rectangle_17963" data-name="Rectangle 17963" width="66.396" height="2.768" transform="translate(0 56.51)" fill="#fd8369"/>
        <rect id="Rectangle_17964" data-name="Rectangle 17964" width="6.64" height="34.51" transform="translate(29.464 22)" fill="#e0e0e0"/>
        <rect id="Rectangle_17965" data-name="Rectangle 17965" width="5.775" height="30.211" transform="translate(23.69 26.303)" fill="#4c5270"/>
        <rect id="Rectangle_17966" data-name="Rectangle 17966" width="5.798" height="30.333" transform="translate(30.468 30.691) rotate(-33.215)" fill="#e0e0e0"/>
        <rect id="Rectangle_17967" data-name="Rectangle 17967" width="3.58" height="25.066" transform="translate(36.102 31.444)" fill="#6bd5e1"/>
        <rect id="Rectangle_17968" data-name="Rectangle 17968" width="3.461" height="3.461" transform="translate(8.459 59.278)" fill="#fd8369"/>
        <rect id="Rectangle_17969" data-name="Rectangle 17969" width="3.461" height="3.461" transform="translate(42.847 59.278)" fill="#fd8369"/>
      </g>
    </g>
    <g id="_017-drawkit-support-woman-colour" data-name="017-drawkit-support-woman-colour" transform="translate(3570.689 6017.652)">
      <rect id="Rectangle_17469" data-name="Rectangle 17469" width="4.312" height="2.959" transform="translate(22.035 145.162)" fill="#de8e68"/>
      <rect id="Rectangle_17470" data-name="Rectangle 17470" width="5.039" height="2.959" transform="translate(49.464 145.162)" fill="#de8e68"/>
      <path id="Path_4649" data-name="Path 4649" d="M603.685,592.348c.118,2.232,5.378,66.95,5.378,66.95h-5.378L589.7,610.7s3.636-19.447,3.889-19.4C594.79,591.6,601.368,592.771,603.685,592.348Z" transform="translate(-554.407 -514.135)" fill="#56cad8"/>
      <path id="Path_4650" data-name="Path 4650" d="M528.287,562.128,513.795,630.16H508.6s-.457-74.56,0-74.56C513.473,557.663,522.673,561.045,528.287,562.128Z" transform="translate(-486.856 -484.473)" fill="#36eee0"/>
      <path id="Path_4651" data-name="Path 4651" d="M666.643,333.453a35.826,35.826,0,0,1,7.119,6.443c1.387-1.032,17.215-14.171,17.536-14.9.626-.355,1.962,1.657,0,3.3,1.336-.051,9.233-.254,9.233,0s1.708.981-9.893,2.841C689.1,333,675.166,349.383,672.9,349.383s-11.5-8.963-11.888-10.569S666.643,333.453,666.643,333.453Z" transform="translate(-613.644 -292.833)" fill="#de8e68"/>
      <path id="Path_4652" data-name="Path 4652" d="M617.877,329.329c-3.619,3.365,3.01,13.512,4.887,13.951,2.384.575,7.83-3.94,9-7.069C632.285,334.741,620.853,326.573,617.877,329.329Z" transform="translate(-576.936 -295.998)" fill="#fcc486"/>
      <path id="Path_4653" data-name="Path 4653" d="M507.9,303.1c-20.124,0-15.558,38.844-14.273,41.5s27.057,10.366,29.087,8.286S528.478,303.1,507.9,303.1Z" transform="translate(-473.45 -274.673)" fill="#fed385"/>
      <path id="Path_4654" data-name="Path 4654" d="M575.288,272.2H569.2v8.844c0,1.133,6.088,1.133,6.088,0Z" transform="translate(-537.374 -248.998)" fill="#d37c59"/>
      <ellipse id="Ellipse_61" data-name="Ellipse 61" cx="6.933" cy="11.635" rx="6.933" ry="11.635" transform="translate(27.869 3.112)" fill="#de8e68"/>
      <path id="Path_4655" data-name="Path 4655" d="M414.653,135.507c-3.5,0-8.134,1.691-11.5,1.691-3.044,0-8.574-2.2-11.5-2.2-1.86,0-10.654.862-10.654,7.948,0,3.2,3.382,6.257,4.059,7.1s1.911,5.581,5.073,5.581c4.414,0,7.458-3.213,11.5-3.213,2.79,0,3.517.676,4.9.676a8.871,8.871,0,0,0,2.537-.507c0-.524-.1-4.9.507-5.614.846-1.015,11.618.49,11.618-3.078.761.676,1.471,3.551,1.471,4.143a8.413,8.413,0,0,0,2.317-5.073C424.968,140.8,423.446,135.507,414.653,135.507Z" transform="translate(-381 -135)" fill="#6c63ff"/>
      <ellipse id="Ellipse_62" data-name="Ellipse 62" cx="3.23" cy="4.549" rx="3.23" ry="4.549" transform="translate(15.913 78.838)" fill="#de8e68"/>
      <path id="Path_4656" data-name="Path 4656" d="M468.818,402.5a65.166,65.166,0,0,0-2.621,20.547,103.7,103.7,0,0,0,2.131,14.831c0,.71,5.175.423,5.175,0s-1.336-13.275-1.048-15.558,4.16-15.49,4.059-17.114S468.818,402.5,468.818,402.5Z" transform="translate(-451.721 -357.264)" fill="#de8e68"/>
      <path id="Path_4657" data-name="Path 4657" d="M479.883,335.21c-4.617-1.471-10.079,9.064-9.555,10.891.66,2.3,7.1,4.8,10.333,4.3C482.182,350.142,483.671,336.428,479.883,335.21Z" transform="translate(-455.193 -301.236)" fill="#fed892"/>
      <path id="Path_4658" data-name="Path 4658" d="M484.741,1006.9v1.3l-5.141,9.639h3.348l6.7-6.071v-4.87Z" transform="translate(-462.926 -859.455)"/>
      <path id="Path_4659" data-name="Path 4659" d="M672.5,1005.7v4.887h14.29v-1.928l-9.064-2.959Z" transform="translate(-623.205 -858.457)"/>
    </g>
  </g>
</svg>
