<svg xmlns="http://www.w3.org/2000/svg" width="171.271" height="211.046" viewBox="0 0 171.271 211.046">
  <g id="_009-app-user-colour" data-name="009-app-user-colour" transform="translate(-192.425 -54)">
    <path id="Path_4409" data-name="Path 4409" d="M539.318,179.355v84.963a11.233,11.233,0,0,1-11.244,11.244H462.044A11.233,11.233,0,0,1,450.8,264.318h0V95.744A11.233,11.233,0,0,1,462.044,84.5h66.031a11.233,11.233,0,0,1,11.244,11.244h0v83.612" transform="translate(-207.049 -24.441)" fill="#fff"/>
    <path id="Path_4410" data-name="Path 4410" d="M701.671,935.984l-14.6-20.223S678.846,904.4,673.681,904.2c-.04,2.98.159,24.354,1.073,31.764h26.917Z" transform="translate(-385.651 -681.308)" fill="#56cad8"/>
    <path id="Path_4411" data-name="Path 4411" d="M565.619,62.1h37.9a3.111,3.111,0,0,1,3.119,3.119v4.787a3.111,3.111,0,0,1-3.119,3.119h-37.9a3.111,3.111,0,0,1-3.119-3.119V65.219A3.124,3.124,0,0,1,565.619,62.1Z" transform="translate(-296.559 -6.491)" fill="#f3f3f3"/>
    <path id="Path_4412" data-name="Path 4412" d="M715.158,899.971h2.7v-32.9L695.094,863.3,673.6,871.445c1.013,2.3,6.357,17.6,17.819,30.989h23.719v-2.463Z" transform="translate(-385.59 -648.533)" fill="#36eee0"/>
    <path id="Path_4413" data-name="Path 4413" d="M536.75,446.491c-1.848-.04-1.848,2.8-1.848,2.8-.894-2.662-20.4-51.192-20.4-51.192s-4.033,1.708.616,10.886c-1.51.894-5.7,4.251-3.973,9.654,1.311,4.053,4.172,5.483,5.959,5.483-.3,3.039,6.2,34.088,7.052,35.578,1.987,3.516,5.82,7.35,8.085,7.449,3.615.179,12.515-4.569,14.72-7.052S540.226,446.551,536.75,446.491Z" transform="translate(-255.076 -275.745)" fill="#de8e68"/>
    <path id="Path_4414" data-name="Path 4414" d="M656.433,547.838c-8.8-7.847-30.274,10.946-29.857,14.2s11.979,15.038,15.376,14.044S663.366,554,656.433,547.838Z" transform="translate(-347.902 -394.215)" fill="#fcc486"/>
    <path id="Path_4415" data-name="Path 4415" d="M713.169,519.929c-3.913-6.337-9.654-10.429-17.878-10.429-28.546,0-29.36,74.3-26.381,78.427,2.642,3.655,34.128,4.609,44.259,2.086" transform="translate(-380.899 -365.015)" fill="#fed385"/>
    <path id="Path_4416" data-name="Path 4416" d="M884.3,698.5l-3,1.232c.258.953,1.41,6.3,3,12.2" transform="translate(-552.03 -516.47)" fill="#de8e68"/>
    <path id="Path_4417" data-name="Path 4417" d="M850.287,552.117c-1.987-1.47-4.013-2.066-5.88-1.291-10.767,4.489-3.1,31.486,0,32.479.993.318,3.258,0,5.88-.7" transform="translate(-518.018 -397.859)" fill="#fed892"/>
    <path id="Path_4418" data-name="Path 4418" d="M781.191,477.391c0,2.364-13.091,2.88-13.091,0V461.3h13.091Z" transform="translate(-461.317 -326.39)" fill="#de8e68"/>
    <ellipse id="Ellipse_32" data-name="Ellipse 32" cx="15.952" cy="11.859" rx="15.952" ry="11.859" transform="translate(294.669 138.49) rotate(-68.304)" fill="#de8e68"/>
    <ellipse id="Ellipse_33" data-name="Ellipse 33" cx="3.754" cy="2.622" rx="3.754" ry="2.622" transform="matrix(0.582, -0.813, 0.813, 0.582, 317.499, 135.168)" fill="#de8e68"/>
    <path id="Path_4419" data-name="Path 4419" d="M706.716,316.01c0-2.185-2.046-4.589-2.424-7.33-.2-1.391.238-7.171-1.391-9.138-3.377-4.052-5.363-3.218-7.946-4.172-4.49-1.649-6.218-4.37-9.933-4.37-4.211,0-5.92,2.185-8.939,2.185-3.457,0-6.277-1.589-11.125-1.589-2.582,0-5.959,3.377-5.959,6.357,0,7.052,6.555,6.039,6.555,7.747,0,1.192-.4,2.145-.4,3.774,0,2.145,2.781,3.377,4.37,3.377,4.847,0,5.483-.6,5.483-.6a21.914,21.914,0,0,1,3.655-5.264c.2-.2,3.337,2.006,8.462,2.185,4.211.139,7.171.954,7.171,2.92,0,1.391-.516,5.5-.477,6.655s.437,1.907.7,1.907a4.361,4.361,0,0,1,2.026-.377c1.728,0,1.867,2.126,2.165,2.126C700.458,322.407,706.716,321,706.716,316.01Z" transform="translate(-373.89 -189.92)" fill="#6c63ff"/>
    <path id="Path_4420" data-name="Path 4420" d="M483.024,284.8h9.913a5.324,5.324,0,0,1,5.324,5.324v9.913a5.324,5.324,0,0,1-5.324,5.324h-9.913a5.324,5.324,0,0,1-5.324-5.324v-9.913A5.324,5.324,0,0,1,483.024,284.8Z" transform="translate(-228.605 -184.952)" fill="#4c5270"/>
    <circle id="Ellipse_34" data-name="Ellipse 34" cx="4.211" cy="4.211" r="4.211" transform="translate(262.981 97.286)" fill="#6c63ff"/>
    <path id="Path_4421" data-name="Path 4421" d="M506.8,54H440.069A16.278,16.278,0,0,0,423.8,70.269v170.6a16.278,16.278,0,0,0,16.269,16.269H506.8a16.278,16.278,0,0,0,16.27-16.269V70.269A16.278,16.278,0,0,0,506.8,54Zm10.886,100.914v84.963a11.233,11.233,0,0,1-11.244,11.244H440.407a11.233,11.233,0,0,1-11.244-11.244h0V71.3a11.233,11.233,0,0,1,11.244-11.244h66.031A11.233,11.233,0,0,1,517.682,71.3h0v83.612Z" transform="translate(-185.412 0)" fill="#f3f3f3"/>
    <path id="Path_4422" data-name="Path 4422" d="M861.786,181.1h24.1a7.893,7.893,0,0,1,7.886,7.886h0a7.893,7.893,0,0,1-7.886,7.886h-24.1a7.893,7.893,0,0,1-7.886-7.886h0A7.88,7.88,0,0,1,861.786,181.1Z" transform="translate(-530.073 -101.852)" fill="#36eee0"/>
    <path id="Path_4423" data-name="Path 4423" d="M873.533,214.353,866.7,207.5v13.707Z" transform="translate(-540.33 -123.007)" fill="#74d5de"/>
    <circle id="Ellipse_35" data-name="Ellipse 35" cx="1.986" cy="1.986" r="1.986" transform="translate(333.64 85.407)" fill="#4c5270"/>
    <circle id="Ellipse_36" data-name="Ellipse 36" cx="1.986" cy="1.986" r="1.986" transform="translate(341.785 85.407)" fill="#4c5270"/>
    <circle id="Ellipse_37" data-name="Ellipse 37" cx="1.986" cy="1.986" r="1.986" transform="translate(349.91 85.407)" fill="#4c5270"/>
    <path id="Path_4424" data-name="Path 4424" d="M245.722,784.4c2.96-1.271,5.264-3.238,5.264-8.9,0-26.52-31.387-19.369-31.387-41.4" transform="translate(-21.776 -544.998)" fill="none" stroke="#74d5de" stroke-linecap="round" stroke-miterlimit="10" stroke-width="9"/>
    <path id="Path_4425" data-name="Path 4425" d="M227.553,730.87c1.708,2.225-3.993,4.748-4.807,3.7S225.746,728.507,227.553,730.87Z" transform="translate(-24.208 -541.908)" fill="#36eee0"/>
    <path id="Path_4426" data-name="Path 4426" d="M366.393,533.831c2.066,2.7-4.052,5.165-5.046,3.874S364.168,530.931,366.393,533.831Z" transform="translate(-135.236 -383.844)" fill="#74d5de"/>
    <path id="Path_4427" data-name="Path 4427" d="M349.869,589.538c1.649,2.98-6.357,5.383-7.151,3.953S348.121,586.34,349.869,589.538Z" transform="translate(-120.381 -428.386)" fill="#36eee0"/>
    <path id="Path_4428" data-name="Path 4428" d="M355.362,633.347c2.165,2.622-5.284,6.436-6.317,5.185S353.058,630.526,355.362,633.347Z" transform="translate(-125.397 -463.713)" fill="#36eee0"/>
    <path id="Path_4429" data-name="Path 4429" d="M368.162,681.275c2.165,2.622-5.284,6.436-6.317,5.185S365.858,678.474,368.162,681.275Z" transform="translate(-135.654 -502.125)" fill="#36eee0"/>
    <path id="Path_4430" data-name="Path 4430" d="M382.756,726.124c1.967,2.384-4.549,5.642-5.483,4.489S380.651,723.561,382.756,726.124Z" transform="translate(-148.024 -538.094)" fill="#36eee0"/>
    <path id="Path_4431" data-name="Path 4431" d="M397.756,775.024c1.967,2.384-4.549,5.642-5.483,4.49S395.651,772.461,397.756,775.024Z" transform="translate(-160.044 -577.281)" fill="#36eee0"/>
    <path id="Path_4432" data-name="Path 4432" d="M192.747,720.144c.715-2.7,6.218.238,5.88,1.549S191.992,723.044,192.747,720.144Z" transform="translate(-0.207 -532.929)" fill="#36eee0"/>
    <path id="Path_4433" data-name="Path 4433" d="M192.44,764.786c-.358-2.761,5.86-2.086,6.019-.755S192.818,767.766,192.44,764.786Z" transform="translate(0 -568.057)" fill="#36eee0"/>
    <path id="Path_4434" data-name="Path 4434" d="M218.652,799.2c-1.808-2.126,3.754-4.966,4.629-3.953S220.6,801.464,218.652,799.2Z" transform="translate(-20.729 -593.828)" fill="#36eee0"/>
    <path id="Path_4435" data-name="Path 4435" d="M254.277,827.873c-1.093-2.563,5.066-3.6,5.582-2.364S255.429,830.615,254.277,827.873Z" transform="translate(-49.461 -617.834)" fill="#36eee0"/>
    <path id="Path_4436" data-name="Path 4436" d="M300.777,852.273c-1.093-2.563,5.066-3.6,5.582-2.364S301.949,855.015,300.777,852.273Z" transform="translate(-86.724 -637.387)" fill="#36eee0"/>
    <path id="Path_4437" data-name="Path 4437" d="M336.173,892.022c-.238-2.781,5.94-1.847,6.059-.516S336.431,895,336.173,892.022Z" transform="translate(-115.187 -670.103)" fill="#36eee0"/>
    <path id="Path_4438" data-name="Path 4438" d="M246.2,761.986c2.185,1.748-2.741,5.582-3.794,4.748S243.852,760.1,246.2,761.986Z" transform="translate(-39.85 -567.044)" fill="#36eee0"/>
    <path id="Path_4439" data-name="Path 4439" d="M273.481,787.529c2.4,1.43-1.927,5.9-3.079,5.225S270.918,786.019,273.481,787.529Z" transform="translate(-62.189 -587.621)" fill="#36eee0"/>
    <path id="Path_4440" data-name="Path 4440" d="M317.53,811.793c2.265,1.629-2.483,5.7-3.576,4.907S315.106,810.045,317.53,811.793Z" transform="translate(-97.16 -606.998)" fill="#36eee0"/>
    <path id="Path_4441" data-name="Path 4441" d="M344.524,637.662c0-1.132,9.635-11.7,9.635-24.831,0-21.414-11.959-32.141-11.959-47.438,0-2.9.258-12,4.867-15.693" transform="translate(-120.022 -397.229)" fill="none" stroke="#74d5de" stroke-linecap="round" stroke-miterlimit="10" stroke-width="9"/>
    <path id="Path_4442" data-name="Path 4442" d="M306.04,994.194H288.479a1.9,1.9,0,0,1-1.808-1.311l-8.741-26.48a1.923,1.923,0,0,1,1.212-2.4,2.085,2.085,0,0,1,.6-.1H314.86a1.908,1.908,0,0,1,1.907,1.907,2.079,2.079,0,0,1-.1.6l-8.82,26.48A1.914,1.914,0,0,1,306.04,994.194Z" transform="translate(-68.447 -729.148)" fill="#acacac"/>
    <path id="Path_4443" data-name="Path 4443" d="M407.567,829.048c1.033,2.92-6.2,3.754-6.675,2.364S406.474,825.909,407.567,829.048Z" transform="translate(-167.034 -620.16)" fill="#36eee0"/>
    <path id="Path_4444" data-name="Path 4444" d="M372.857,853.64c2.284-2.066,5.86,4.271,4.748,5.264S370.393,855.865,372.857,853.64Z" transform="translate(-144.123 -640.462)" fill="#36eee0"/>
    <path id="Path_4445" data-name="Path 4445" d="M364.923,812.306c1.51-2.682,6.893,2.205,6.178,3.476S363.294,815.186,364.923,812.306Z" transform="translate(-138.037 -607.034)" fill="#36eee0"/>
    <path id="Path_4446" data-name="Path 4446" d="M356.223,765.106c1.51-2.682,6.893,2.205,6.178,3.476S354.594,767.986,356.223,765.106Z" transform="translate(-131.065 -569.21)" fill="#36eee0"/>
    <path id="Path_4447" data-name="Path 4447" d="M341.267,726.41c.993-2.94,7.191.854,6.714,2.265S340.194,729.529,341.267,726.41Z" transform="translate(-119.188 -537.964)" fill="#36eee0"/>
    <path id="Path_4448" data-name="Path 4448" d="M318.831,675.618c1.45-2.741,6.953,2.006,6.257,3.317S317.3,678.558,318.831,675.618Z" transform="translate(-101.122 -497.462)" fill="#36eee0"/>
    <path id="Path_4449" data-name="Path 4449" d="M308.192,618.545c1.689-2.583,6.754,2.642,5.94,3.874S306.384,621.326,308.192,618.545Z" transform="translate(-92.53 -451.831)" fill="#36eee0"/>
    <path id="Path_4450" data-name="Path 4450" d="M313.292,568.945c1.689-2.582,6.754,2.642,5.94,3.874S311.484,571.726,313.292,568.945Z" transform="translate(-96.616 -412.084)" fill="#36eee0"/>
    <path id="Path_4451" data-name="Path 4451" d="M407.567,880.082c1.033,2.92-6.2,3.755-6.675,2.364S406.474,876.963,407.567,880.082Z" transform="translate(-167.034 -661.064)" fill="#36eee0"/>
  </g>
</svg>
