<svg xmlns="http://www.w3.org/2000/svg" width="126.874" height="153.575" viewBox="0 0 126.874 153.575">
  <g id="_003-drawing-woman-colour" data-name="003-drawing-woman-colour" transform="translate(-149.247 -55)">
    <line id="Line_5" data-name="Line 5" x1="11.736" y2="43.033" transform="translate(191.294 155.979)" fill="none" stroke="#4c5270" stroke-linecap="round" stroke-miterlimit="10" stroke-width="4"/>
    <line id="Line_6" data-name="Line 6" x2="11.736" y2="43.033" transform="translate(207.377 155.979)" fill="none" stroke="#4c5270" stroke-linecap="round" stroke-miterlimit="10" stroke-width="4"/>
    <path id="Path_4301" data-name="Path 4301" d="M198.833,342.81H176.4L150,280h22.432Z" transform="translate(0 -186.175)" fill="#4c5270" stroke="#4c5270" stroke-width="1"/>
    <line id="Line_7" data-name="Line 7" y2="63.028" transform="translate(206.508 122.944)" fill="none" stroke="#4c5270" stroke-linecap="round" stroke-miterlimit="10" stroke-width="4"/>
    <line id="Line_8" data-name="Line 8" y2="72.591" transform="translate(214.767 122.944)" fill="none" stroke="#4c5270" stroke-linecap="round" stroke-miterlimit="10" stroke-width="4"/>
    <rect id="Rectangle_17368" data-name="Rectangle 17368" width="2.947" height="3.279" transform="matrix(1, -0.005, 0.005, 1, 225.169, 193.946)" fill="#de8e68"/>
    <path id="Path_4302" data-name="Path 4302" d="M585.27,877.728l10.978.507.192-.906-7.575-2.73-3.515.119Z" transform="translate(-360.161 -678.173)"/>
    <rect id="Rectangle_17369" data-name="Rectangle 17369" width="3.877" height="4.314" transform="matrix(0.84, 0.542, -0.542, 0.84, 209.836, 193.979)" fill="#de8e68"/>
    <path id="Path_4303" data-name="Path 4303" d="M585,759.871V768.5h2.933s5-11.734,6.557-19.5" transform="translate(-359.938 -574.246)" fill="#56cad8"/>
    <path id="Path_4304" data-name="Path 4304" d="M426.51,487.257A155.24,155.24,0,0,1,452.133,485c14.322,0,20.448,1.639,21.915,3.106s-4.141,23.468-5,25.193" transform="translate(-228.796 -355.801)" fill="#5daea8"/>
    <path id="Path_4305" data-name="Path 4305" d="M280.922,479c-1.035,1.9-.749,2.243-1.035,8.628-1.035,23.123,32.1,19.5,54.355,25.711-5.694,17.773-17.256,30.888-17.256,31.75s2.645,2.823,3.106,2.588c8.8-4.486,35.914-34.278,35.547-39.343-.69-9.491-45.21-26.229-51.077-26.229" transform="translate(-107.454 -350.836)" fill="#36eee0"/>
    <path id="Path_4306" data-name="Path 4306" d="M467.195,329.9c5.123,4.331,8.057,13.649,8.4,13.649,12.6,0,24.676,3.279,25.538,3.279s2.588-1.208,3.279-1.208,3.8,1.38,3.8,2.071-36.927.173-37.79.173c-.776-.777-7.42-7.075-7.42-8.11" transform="translate(-258.99 -227.464)" fill="#d9805a"/>
    <line id="Line_9" data-name="Line 9" x2="2.608" y2="9.563" transform="translate(242.151 99.471)" fill="none" stroke="#4c5270" stroke-linecap="round" stroke-miterlimit="10" stroke-width="4"/>
    <path id="Path_4307" data-name="Path 4307" d="M385.264,229.382c-3.543,2.7.345,22.26,3.624,23.468s14.322-6.039,14.495-8.628S388.888,226.621,385.264,229.382Z" transform="translate(-193.506 -144.012)" fill="#fed07d"/>
    <path id="Path_4308" data-name="Path 4308" d="M280.632,232.52c3.969-17.083,17.428-41.759,20.362-44.52,6.039,0,14.15,13.632,14.15,21.742,0,9.145-8.447,30.939-10.181,32.1-3.106,2.071-20.017.518-24.5-3.624C279.646,237.465,280.632,232.52,280.632,232.52Z" transform="translate(-107.682 -110.05)" fill="#fed385"/>
    <ellipse id="Ellipse_23" data-name="Ellipse 23" cx="2.173" cy="1.956" rx="2.173" ry="1.956" transform="translate(191.729 67.305)" fill="#de8e68"/>
    <path id="Path_4309" data-name="Path 4309" d="M390.6,146.947c-.14.468,5.608,1.639,6.039,1.208,0-.863,0-4.659.518-6.039s-3.289-5.418-4.405-5.815c-1.116,1.846-3.877-.742-2.842,1.846A12.544,12.544,0,0,1,390.6,146.947Z" transform="translate(-198.32 -67.271)" fill="#d9805a"/>
    <ellipse id="Ellipse_24" data-name="Ellipse 24" cx="4.781" cy="9.128" rx="4.781" ry="9.128" transform="translate(193.033 58.177)" fill="#de8e68"/>
    <path id="Path_4310" data-name="Path 4310" d="M228.06,59.659c-5.177,0-6.212-4.659-12.251-4.659-5,0-6.79,3.367-8.973,5C204.765,61.557,197,63.455,197,71.911c0,5.867,4.486,11.216,9.491,11.216,6.212,0,12.251-7.765,18.809-7.765,2.761,0,2.243,1.035,5.522,1.035,1.208,0,1.208-.863,1.208-1.208s.518-1.035.518-1.726c0-2.071-1.726-1.208-1.726-3.969a2.263,2.263,0,0,1,2.416-2.024c1.208,0,6.385-4.36,6.385-7.467a6.636,6.636,0,0,1,.863,2.071c.173,0,.345-.863.345-1.208,0-3.451-3.451-4.314-4.659-4.314C233.409,56.553,232.2,59.659,228.06,59.659Z" transform="translate(-38.89)"/>
    <path id="Path_4311" data-name="Path 4311" d="M383.264,242.382c-3.543,2.7.345,22.26,3.624,23.468s14.322-6.039,14.495-8.628S386.888,239.621,383.264,242.382Z" transform="translate(-191.851 -154.769)" fill="#fed892"/>
    <path id="Path_4312" data-name="Path 4312" d="M434.526,333.345c.518.69,3.624,5,3.624,5,1.726,0,7.938-.345,28.817-6.385.69-.173,2.317,2.745,1.208,3.451-3.8,2.416-29.68,13.977-35.374,13.977-1.38,0-8.8-9.145-8.8-10.353" transform="translate(-226.72 -229.167)" fill="#de8e68"/>
    <circle id="Ellipse_25" data-name="Ellipse 25" cx="2.608" cy="2.608" r="2.608" transform="translate(239.978 101.21)" fill="#de8e68"/>
    <path id="Path_4313" data-name="Path 4313" d="M438.53,562.571c8.8-4.486,36.425-34.339,35.547-39.343C472.351,513.393,428.867,497,423,497" transform="translate(-225.892 -365.73)" fill="none"/>
    <path id="Path_4314" data-name="Path 4314" d="M473,880.37l11.734,8.455.863-.863-6.385-8.455-3.958-2.4Z" transform="translate(-267.264 -680.25)"/>
    <rect id="Rectangle_17370" data-name="Rectangle 17370" width="72.591" height="3.043" transform="translate(203.031 120.77)" fill="#4c5270" stroke="#4c5270" stroke-width="1"/>
    <line id="Line_10" data-name="Line 10" y2="63.028" transform="translate(263.451 122.944)" fill="none" stroke="#4c5270" stroke-linecap="round" stroke-miterlimit="10" stroke-width="4"/>
    <line id="Line_11" data-name="Line 11" y2="72.591" transform="translate(272.144 122.944)" fill="none" stroke="#4c5270" stroke-linecap="round" stroke-miterlimit="10" stroke-width="4"/>
    <line id="Line_12" data-name="Line 12" x1="11.736" y2="43.033" transform="translate(171.734 155.979)" fill="none" stroke="#4c5270" stroke-linecap="round" stroke-miterlimit="10" stroke-width="4"/>
  </g>
</svg>
